<?xml version="1.0" encoding="UTF-8"?>
<svg xmlns="http://www.w3.org/2000/svg" xmlns:xlink="http://www.w3.org/1999/xlink" width="375pt" height="374.999991pt" viewBox="0 0 375 374.999991" version="1.2">
<defs>
<clipPath id="clip1">
  <path d="M 23.0625 4 L 351.5625 4 L 351.5625 371 L 23.0625 371 Z M 23.0625 4 "/>
</clipPath>
<clipPath id="clip2">
  <path d="M 64.484375 50 L 310.484375 50 L 310.484375 325 L 64.484375 325 Z M 64.484375 50 "/>
</clipPath>
<clipPath id="clip3">
  <path d="M 86.367188 74 L 288.867188 74 L 288.867188 301 L 86.367188 301 Z M 86.367188 74 "/>
</clipPath>
<clipPath id="clip4">
  <path d="M 124.375 117 L 250.375 117 L 250.375 258 L 124.375 258 Z M 124.375 117 "/>
</clipPath>
<clipPath id="clip5">
  <path d="M 149.117188 144 L 225.617188 144 L 225.617188 230 L 149.117188 230 Z M 149.117188 144 "/>
</clipPath>
</defs>
<g id="surface1">
<g clip-path="url(#clip1)" clip-rule="nonzero">
<path style=" stroke:none;fill-rule:nonzero;fill:rgb(7.058716%,10.5896%,14.118958%);fill-opacity:1;" d="M 23.421875 259.5 L 23.421875 115.453125 C 23.425781 113.753906 23.539062 112.0625 23.761719 110.378906 C 23.984375 108.691406 24.316406 107.03125 24.753906 105.390625 C 25.195312 103.746094 25.738281 102.140625 26.390625 100.570312 C 27.039062 99 27.785156 97.480469 28.632812 96.003906 C 29.480469 94.53125 30.421875 93.121094 31.453125 91.769531 C 32.484375 90.417969 33.601562 89.140625 34.800781 87.933594 C 35.996094 86.730469 37.269531 85.605469 38.613281 84.566406 C 39.960938 83.523438 41.367188 82.574219 42.835938 81.71875 L 167.695312 9.734375 C 169.175781 8.882812 170.707031 8.132812 172.285156 7.480469 C 173.863281 6.832031 175.480469 6.285156 177.128906 5.84375 C 178.78125 5.402344 180.453125 5.074219 182.148438 4.851562 C 183.839844 4.628906 185.542969 4.519531 187.25 4.519531 C 188.957031 4.519531 190.660156 4.628906 192.351562 4.851562 C 194.046875 5.074219 195.71875 5.402344 197.371094 5.84375 C 199.019531 6.285156 200.632812 6.832031 202.214844 7.480469 C 203.792969 8.132812 205.324219 8.882812 206.804688 9.734375 L 331.601562 81.71875 C 333.082031 82.566406 334.5 83.507812 335.859375 84.542969 C 337.214844 85.574219 338.5 86.691406 339.707031 87.894531 C 340.917969 89.097656 342.042969 90.375 343.085938 91.722656 C 344.128906 93.074219 345.078125 94.484375 345.933594 95.960938 C 346.789062 97.433594 347.546875 98.957031 348.203125 100.53125 C 348.859375 102.105469 349.410156 103.714844 349.855469 105.359375 C 350.300781 107.003906 350.636719 108.671875 350.859375 110.363281 C 351.085938 112.050781 351.199219 113.75 351.203125 115.453125 L 351.203125 259.5 C 351.203125 261.207031 351.089844 262.902344 350.863281 264.59375 C 350.636719 266.285156 350.304688 267.953125 349.859375 269.597656 C 349.414062 271.246094 348.863281 272.855469 348.210938 274.429688 C 347.554688 276.003906 346.796875 277.527344 345.941406 279.003906 C 345.082031 280.480469 344.132812 281.890625 343.089844 283.242188 C 342.050781 284.59375 340.921875 285.871094 339.710938 287.070312 C 338.5 288.273438 337.21875 289.394531 335.859375 290.425781 C 334.503906 291.460938 333.082031 292.402344 331.601562 293.25 L 206.757812 365.296875 C 205.273438 366.144531 203.742188 366.890625 202.164062 367.539062 C 200.582031 368.183594 198.96875 368.726562 197.320312 369.164062 C 195.667969 369.601562 193.996094 369.933594 192.304688 370.152344 C 190.609375 370.375 188.910156 370.484375 187.203125 370.484375 C 185.496094 370.484375 183.796875 370.375 182.101562 370.152344 C 180.410156 369.933594 178.738281 369.601562 177.085938 369.164062 C 175.4375 368.726562 173.820312 368.183594 172.242188 367.539062 C 170.664062 366.890625 169.132812 366.144531 167.648438 365.296875 L 42.789062 293.21875 C 41.320312 292.363281 39.914062 291.414062 38.570312 290.371094 C 37.230469 289.332031 35.957031 288.210938 34.761719 287.003906 C 33.566406 285.800781 32.453125 284.519531 31.421875 283.171875 C 30.390625 281.820312 29.453125 280.410156 28.609375 278.9375 C 27.761719 277.464844 27.015625 275.941406 26.367188 274.371094 C 25.722656 272.800781 25.179688 271.199219 24.742188 269.558594 C 24.304688 267.917969 23.972656 266.253906 23.753906 264.570312 C 23.53125 262.886719 23.421875 261.199219 23.421875 259.5 Z M 23.421875 259.5 "/>
</g>
<g clip-path="url(#clip2)" clip-rule="nonzero">
<path style=" stroke:none;fill-rule:nonzero;fill:rgb(100%,100%,100%);fill-opacity:1;" d="M 64.753906 241.570312 L 64.753906 133.535156 C 64.753906 132.257812 64.839844 130.988281 65.007812 129.726562 C 65.175781 128.464844 65.421875 127.214844 65.753906 125.984375 C 66.082031 124.753906 66.488281 123.550781 66.976562 122.371094 C 67.460938 121.195312 68.023438 120.050781 68.65625 118.949219 C 69.292969 117.84375 69.996094 116.785156 70.769531 115.769531 C 71.542969 114.757812 72.375 113.796875 73.273438 112.894531 C 74.171875 111.988281 75.125 111.148438 76.128906 110.367188 C 77.136719 109.585938 78.191406 108.875 79.292969 108.230469 L 172.792969 54.242188 C 173.902344 53.605469 175.050781 53.042969 176.230469 52.550781 C 177.414062 52.0625 178.625 51.65625 179.859375 51.324219 C 181.09375 50.996094 182.347656 50.746094 183.617188 50.578125 C 184.882812 50.414062 186.160156 50.328125 187.4375 50.328125 C 188.714844 50.328125 189.992188 50.414062 191.257812 50.578125 C 192.527344 50.746094 193.78125 50.996094 195.015625 51.324219 C 196.25 51.65625 197.460938 52.0625 198.644531 52.550781 C 199.824219 53.042969 200.972656 53.605469 202.082031 54.242188 L 295.535156 108.230469 C 296.644531 108.867188 297.707031 109.574219 298.722656 110.347656 C 299.738281 111.125 300.699219 111.960938 301.605469 112.863281 C 302.511719 113.765625 303.355469 114.722656 304.136719 115.734375 C 304.917969 116.746094 305.628906 117.808594 306.269531 118.914062 C 306.910156 120.019531 307.476562 121.160156 307.96875 122.339844 C 308.460938 123.519531 308.871094 124.726562 309.207031 125.960938 C 309.539062 127.195312 309.789062 128.449219 309.957031 129.714844 C 310.128906 130.980469 310.214844 132.253906 310.214844 133.535156 L 310.214844 241.570312 C 310.214844 242.851562 310.128906 244.125 309.960938 245.390625 C 309.792969 246.660156 309.542969 247.910156 309.210938 249.144531 C 308.875 250.378906 308.464844 251.589844 307.972656 252.769531 C 307.480469 253.949219 306.914062 255.09375 306.273438 256.199219 C 305.632812 257.304688 304.921875 258.367188 304.140625 259.378906 C 303.359375 260.390625 302.515625 261.347656 301.609375 262.25 C 300.703125 263.152344 299.742188 263.992188 298.726562 264.765625 C 297.710938 265.542969 296.644531 266.25 295.535156 266.882812 L 202.046875 320.921875 C 200.933594 321.554688 199.789062 322.117188 198.605469 322.601562 C 197.421875 323.085938 196.214844 323.492188 194.976562 323.820312 C 193.742188 324.152344 192.488281 324.398438 191.222656 324.5625 C 189.953125 324.730469 188.679688 324.8125 187.402344 324.8125 C 186.125 324.8125 184.851562 324.730469 183.582031 324.5625 C 182.316406 324.398438 181.0625 324.152344 179.828125 323.820312 C 178.589844 323.492188 177.382812 323.085938 176.199219 322.601562 C 175.015625 322.117188 173.871094 321.554688 172.757812 320.921875 L 79.257812 266.859375 C 78.15625 266.21875 77.105469 265.507812 76.097656 264.726562 C 75.09375 263.945312 74.140625 263.105469 73.246094 262.199219 C 72.347656 261.296875 71.515625 260.335938 70.742188 259.324219 C 69.972656 258.3125 69.269531 257.253906 68.636719 256.148438 C 68.003906 255.042969 67.445312 253.902344 66.960938 252.726562 C 66.476562 251.546875 66.070312 250.34375 65.742188 249.113281 C 65.414062 247.882812 65.167969 246.636719 65 245.375 C 64.835938 244.113281 64.753906 242.84375 64.753906 241.570312 Z M 64.753906 241.570312 "/>
</g>
<g clip-path="url(#clip3)" clip-rule="nonzero">
<path style=" stroke:none;fill-rule:nonzero;fill:rgb(3.919983%,34.509277%,79.219055%);fill-opacity:1;" d="M 86.589844 232.015625 L 86.589844 142.996094 C 86.589844 141.945312 86.660156 140.902344 86.796875 139.859375 C 86.933594 138.820312 87.140625 137.792969 87.410156 136.777344 C 87.683594 135.761719 88.015625 134.769531 88.417969 133.800781 C 88.816406 132.828125 89.28125 131.890625 89.800781 130.976562 C 90.324219 130.066406 90.902344 129.195312 91.539062 128.359375 C 92.175781 127.527344 92.863281 126.734375 93.601562 125.992188 C 94.339844 125.246094 95.125 124.550781 95.953125 123.910156 C 96.78125 123.265625 97.648438 122.679688 98.554688 122.148438 L 175.523438 77.664062 C 176.4375 77.136719 177.378906 76.675781 178.355469 76.273438 C 179.328125 75.871094 180.324219 75.53125 181.339844 75.261719 C 182.359375 74.988281 183.386719 74.785156 184.433594 74.644531 C 185.476562 74.507812 186.523438 74.441406 187.578125 74.441406 C 188.632812 74.441406 189.679688 74.507812 190.722656 74.644531 C 191.769531 74.785156 192.800781 74.988281 193.816406 75.261719 C 194.832031 75.53125 195.828125 75.871094 196.800781 76.273438 C 197.777344 76.675781 198.71875 77.136719 199.632812 77.664062 L 276.5625 122.148438 C 277.476562 122.671875 278.351562 123.253906 279.1875 123.894531 C 280.023438 124.53125 280.8125 125.222656 281.558594 125.964844 C 282.304688 126.710938 283 127.496094 283.640625 128.332031 C 284.285156 129.164062 284.871094 130.039062 285.398438 130.949219 C 285.925781 131.859375 286.390625 132.800781 286.796875 133.773438 C 287.199219 134.746094 287.539062 135.742188 287.8125 136.757812 C 288.089844 137.777344 288.296875 138.804688 288.433594 139.851562 C 288.574219 140.894531 288.644531 141.941406 288.644531 142.996094 L 288.644531 232.015625 C 288.644531 233.070312 288.574219 234.117188 288.4375 235.164062 C 288.296875 236.207031 288.089844 237.238281 287.816406 238.257812 C 287.542969 239.273438 287.203125 240.269531 286.800781 241.242188 C 286.394531 242.214844 285.929688 243.15625 285.402344 244.066406 C 284.871094 244.980469 284.289062 245.851562 283.644531 246.6875 C 283.003906 247.523438 282.308594 248.3125 281.5625 249.054688 C 280.816406 249.796875 280.023438 250.488281 279.1875 251.128906 C 278.351562 251.765625 277.476562 252.347656 276.5625 252.871094 L 199.601562 297.394531 C 198.6875 297.917969 197.746094 298.378906 196.773438 298.78125 C 195.796875 299.179688 194.800781 299.515625 193.785156 299.785156 C 192.769531 300.058594 191.738281 300.261719 190.695312 300.398438 C 189.648438 300.535156 188.601562 300.601562 187.550781 300.601562 C 186.496094 300.601562 185.449219 300.535156 184.40625 300.398438 C 183.363281 300.261719 182.332031 300.058594 181.3125 299.785156 C 180.296875 299.515625 179.300781 299.179688 178.328125 298.78125 C 177.351562 298.378906 176.410156 297.917969 175.496094 297.394531 L 98.527344 252.851562 C 97.621094 252.324219 96.753906 251.738281 95.925781 251.09375 C 95.097656 250.449219 94.316406 249.757812 93.578125 249.011719 C 92.839844 248.265625 92.15625 247.476562 91.519531 246.644531 C 90.882812 245.808594 90.304688 244.9375 89.785156 244.027344 C 89.265625 243.117188 88.804688 242.175781 88.40625 241.207031 C 88.003906 240.234375 87.671875 239.242188 87.402344 238.230469 C 87.132812 237.214844 86.929688 236.1875 86.792969 235.148438 C 86.65625 234.109375 86.589844 233.0625 86.589844 232.015625 Z M 86.589844 232.015625 "/>
</g>
<g clip-path="url(#clip4)" clip-rule="nonzero">
<path style=" stroke:none;fill-rule:nonzero;fill:rgb(100%,100%,100%);fill-opacity:1;" d="M 124.511719 215.285156 L 124.511719 159.972656 C 124.515625 158.664062 124.683594 157.375 125.023438 156.109375 C 125.363281 154.84375 125.859375 153.640625 126.511719 152.503906 C 127.164062 151.367188 127.953125 150.335938 128.875 149.40625 C 129.800781 148.476562 130.828125 147.679688 131.957031 147.019531 L 179.851562 119.375 C 180.992188 118.71875 182.199219 118.222656 183.46875 117.882812 C 184.742188 117.542969 186.035156 117.375 187.351562 117.375 C 188.667969 117.375 189.960938 117.542969 191.230469 117.882812 C 192.503906 118.222656 193.710938 118.71875 194.851562 119.375 L 242.71875 147.019531 C 243.859375 147.671875 244.894531 148.464844 245.828125 149.390625 C 246.761719 150.316406 247.554688 151.351562 248.214844 152.488281 C 248.875 153.625 249.378906 154.828125 249.71875 156.097656 C 250.0625 157.367188 250.234375 158.65625 250.238281 159.972656 L 250.238281 215.285156 C 250.234375 216.601562 250.0625 217.894531 249.722656 219.164062 C 249.378906 220.433594 248.878906 221.636719 248.21875 222.777344 C 247.558594 223.914062 246.761719 224.945312 245.828125 225.875 C 244.898438 226.800781 243.859375 227.59375 242.71875 228.246094 L 194.832031 255.914062 C 193.691406 256.566406 192.484375 257.0625 191.214844 257.398438 C 189.941406 257.734375 188.648438 257.90625 187.332031 257.90625 C 186.015625 257.90625 184.722656 257.734375 183.453125 257.398438 C 182.179688 257.0625 180.976562 256.566406 179.832031 255.914062 L 131.941406 228.234375 C 130.808594 227.574219 129.785156 226.777344 128.863281 225.847656 C 127.941406 224.917969 127.152344 223.886719 126.5 222.75 C 125.851562 221.613281 125.355469 220.414062 125.019531 219.148438 C 124.679688 217.882812 124.511719 216.597656 124.511719 215.285156 Z M 124.511719 215.285156 "/>
</g>
<path style=" stroke:none;fill-rule:nonzero;fill:rgb(100%,100%,100%);fill-opacity:1;" d="M 285.707031 120.617188 L 294.128906 137.277344 L 234.109375 167.621094 L 225.6875 150.960938 Z M 285.707031 120.617188 "/>
<path style=" stroke:none;fill-rule:nonzero;fill:rgb(100%,100%,100%);fill-opacity:1;" d="M 178.183594 241.320312 L 196.851562 241.320312 L 196.851562 306.226562 L 178.183594 306.226562 Z M 178.183594 241.320312 "/>
<path style=" stroke:none;fill-rule:nonzero;fill:rgb(100%,100%,100%);fill-opacity:1;" d="M 82.402344 137.191406 L 90.914062 120.574219 L 146.484375 149.03125 L 137.976562 165.648438 Z M 82.402344 137.191406 "/>
<g clip-path="url(#clip5)" clip-rule="nonzero">
<path style=" stroke:none;fill-rule:nonzero;fill:rgb(7.058716%,10.5896%,14.118958%);fill-opacity:1;" d="M 149.203125 204.140625 L 149.203125 170.71875 C 149.203125 169.929688 149.308594 169.148438 149.511719 168.382812 C 149.71875 167.621094 150.019531 166.894531 150.417969 166.207031 C 150.8125 165.519531 151.292969 164.898438 151.851562 164.335938 C 152.414062 163.773438 153.035156 163.292969 153.722656 162.894531 L 182.800781 146.191406 C 183.492188 145.792969 184.226562 145.492188 184.996094 145.289062 C 185.769531 145.082031 186.554688 144.980469 187.355469 144.980469 C 188.152344 144.980469 188.9375 145.082031 189.710938 145.289062 C 190.484375 145.492188 191.214844 145.792969 191.90625 146.191406 L 220.96875 162.894531 C 221.664062 163.289062 222.292969 163.765625 222.859375 164.324219 C 223.421875 164.886719 223.90625 165.507812 224.308594 166.195312 C 224.707031 166.882812 225.011719 167.609375 225.222656 168.378906 C 225.429688 169.144531 225.535156 169.925781 225.535156 170.71875 L 225.535156 204.140625 C 225.535156 204.933594 225.429688 205.714844 225.222656 206.484375 C 225.015625 207.25 224.710938 207.976562 224.308594 208.664062 C 223.910156 209.351562 223.425781 209.976562 222.859375 210.539062 C 222.292969 211.097656 221.664062 211.574219 220.96875 211.972656 L 191.894531 228.6875 C 191.203125 229.082031 190.46875 229.378906 189.699219 229.585938 C 188.925781 229.789062 188.140625 229.890625 187.34375 229.890625 C 186.542969 229.890625 185.757812 229.789062 184.988281 229.585938 C 184.214844 229.378906 183.484375 229.082031 182.789062 228.6875 L 153.710938 211.964844 C 153.027344 211.5625 152.402344 211.082031 151.84375 210.523438 C 151.28125 209.960938 150.804688 209.335938 150.410156 208.648438 C 150.015625 207.964844 149.714844 207.238281 149.507812 206.472656 C 149.304688 205.710938 149.203125 204.929688 149.203125 204.140625 Z M 149.203125 204.140625 "/>
</g>
</g>
</svg>
